<svg id="Layer_1" data-name="Layer 1" xmlns="http://www.w3.org/2000/svg" viewBox="0 0 98 112.88"><path d="M99,110H73V98.5c0-18.32-.12-36.64.08-55a30.25,30.25,0,0,1,3.85-14.37,37.43,37.43,0,0,1,6.63-8.25c1.06-1.06,3-1.44,4.87.16A23.86,23.86,0,0,1,96,31.16c2.57,5.78,3.15,11.91,3.1,18.23-.16,18.49-.06,37-.06,55.46Z" transform="translate(-37 -19.96)"/><path d="M134.94,110.11h-24.8V98.61c0-18.32-.12-36.64.07-55a31.33,31.33,0,0,1,3.68-14.37A37.19,37.19,0,0,1,120.2,21c1-1.07,2.85-1.45,4.66.15A23.92,23.92,0,0,1,132,31.27c2.45,5.79,3,11.91,3,18.23-.16,18.49-.06,37-.06,55.46Z" transform="translate(-37 -19.96)"/><path d="M98.92,119.17v13.66H73.19c-.44-2-.12-4.32-.18-6.58s0-4.61,0-7.08Z" transform="translate(-37 -19.96)"/><path d="M61.91,119.16v13.68H37V119.16Z" transform="translate(-37 -19.96)"/><path d="M110.09,132.84V119.16H135v13.68Z" transform="translate(-37 -19.96)"/><path d="M61.85,110H37.05V98.5c0-18.32-.11-36.64.08-55a31.18,31.18,0,0,1,3.68-14.37,37.29,37.29,0,0,1,6.32-8.25c1-1.06,2.85-1.44,4.65.16A23.88,23.88,0,0,1,59,31.16c2.45,5.78,3,11.91,3,18.23-.15,18.49,0,37,0,55.46Z" transform="translate(-37 -19.96)"/></svg>