<?xml version="1.0" encoding="utf-8"?>
<svg viewBox="97.05 106.656 305.9 286.687" xmlns="http://www.w3.org/2000/svg">
  <g transform="matrix(1, 0, 0, 1, -0.000015, 33.209488)">
    <ellipse style="stroke: rgb(0, 0, 0); stroke-opacity: 0; paint-order: fill;" cx="250" cy="136.397" rx="62.95" ry="62.95"/>
    <ellipse style="stroke: rgb(0, 0, 0); stroke-opacity: 0; paint-order: fill;" cx="160" cy="293.5" rx="62.95" ry="62.95"/>
    <ellipse style="stroke: rgb(0, 0, 0); stroke-opacity: 0; paint-order: fill;" cx="340" cy="293.5" rx="62.95" ry="62.95"/>
    <path d="M 335.206 324.84 C 314.362 345.685 282.018 360.134 250 360.134 C 241.976 360.134 233.932 359.227 226.053 357.539 C 234.957 348.357 241.963 337.324 246.439 325.074 C 247.613 325.114 248.8 325.134 250 325.134 C 274.867 325.134 294.024 316.526 310.458 300.092 C 312.27 298.28 313.988 296.434 315.609 294.551 C 323.377 292.322 331.556 290.845 340 290.845 C 346.067 290.845 351.998 291.607 357.737 292.864 C 351.801 304.999 344.084 315.963 335.206 324.84 Z M 129.5 239.634 C 129.5 209.739 142.097 179.559 160.735 158.722 C 163.941 171.547 169.846 183.305 177.812 193.359 C 169.037 206.537 164.5 221.58 164.5 239.634 C 164.5 257.513 168.95 272.441 177.559 285.526 C 171.875 286.538 166.005 287.159 160 287.159 C 152.65 287.159 145.502 286.229 138.651 284.791 C 132.85 270.543 129.5 255.051 129.5 239.634 Z M 335.206 154.428 C 348.431 167.652 359.081 185.504 365.1 204.966 C 357.121 202.708 348.702 201.5 340 201.5 C 335.716 201.5 331.499 201.793 327.371 202.36 C 323.25 193.956 317.591 186.309 310.458 179.176 C 294.86 163.578 276.81 155.031 253.753 154.201 C 251.127 147.86 249.301 142.562 249.301 139.135 C 249.301 135.269 251.953 128.057 255.425 119.271 C 285.634 120.786 315.539 134.76 335.206 154.428 Z" style=""/>
  </g>
</svg>