<svg id="Layer_1" data-name="Layer 1" xmlns="http://www.w3.org/2000/svg" viewBox="0 0 411.47 665.48"><path d="M207.24,239.23c7.66-6.08,14.52-11.81,21.68-17.15q28.61-21.39,57.46-42.45A58.93,58.93,0,0,1,294.9,175c4.27-2.12,6.33-1.35,8,3.23s3.06,9.47,4.75,14.15c5.31,14.76,10.59,29.54,16.11,44.22,2.34,6.23,2.51,8-2.92,11.8-18.68,13.11-37.32,26.31-56.41,38.79-32.38,21.16-65.08,41.83-97.69,62.64A116.26,116.26,0,0,1,155,356.35c-8,3.87-17.23-2-17.09-11.37.09-6.29,1.31-12.6,2.44-18.82q8-43.85,16.19-87.65c5.05-26.71,10.36-53.37,15.55-80a29.69,29.69,0,0,0,.35-3c.29-3.47-1.23-4.66-4.48-3.16-17.77,8.18-35.73,16-53.18,24.82-24.48,12.39-48.36,25.91-70.41,42.4-.7.52-1.51.88-2.23,1.37-2.88,1.93-4.72,1-5.62-2.12-1.49-5-2.79-10.06-4.28-15.07q-10.34-34.51-20.72-69c-1.4-4.65-2.9-9.27-4.18-14-1.61-5.92-.45-8.43,4.94-11.26,18-9.44,36.05-18.78,54-28.33C98.56,64,131.22,47.64,165.17,34.08,190.37,24,216,14.91,241.42,5.54,251.6,1.8,253.8,5,254.28,14.92c.64,13.58-3,26.61-5.11,39.85a623.2,623.2,0,0,1-16,74.29c-6,21.17-12.5,42.24-17.84,63.59-3.56,14.2-5.48,28.81-8.1,43.25A25.22,25.22,0,0,0,207.24,239.23Z" transform="translate(-6.15 -4.03)"/><path d="M138.17,558.26c2-2.53,3.9-5.08,5.9-7.58Q158.83,532.3,173.63,514a14.82,14.82,0,0,1,1.59-1.58c3.55-3.28,5.42-3.18,8.16.74,4.37,6.24,8.59,12.58,12.89,18.86,1.77,2.57,3.59,5.11,5.4,7.65,3.33,4.68,3.53,6.22-.17,10.59-8.22,9.71-16.52,19.37-25.05,28.81-15.64,17.33-31.48,34.47-47.2,51.73-5,5.48-9.18,6.74-12.56,2.85a16.08,16.08,0,0,1-3.49-8.38C111.87,613,111,600.67,110,588.38q-1.87-23.65-3.61-47.31c-.6-8.17-1.08-16.35-1.67-25.44-2.75,2.21-4.94,3.79-6.93,5.58-14.47,13-29,25.93-43.28,39.16-4.18,3.88-7.51,8.67-11.28,13-2.44,2.79-3.77,2.76-5.73-.43-10.16-16.61-20.19-33.3-30.38-49.89C5,519.59,6.72,517.44,9,515.32q12.82-11.78,25.72-23.47c22.91-20.66,46.31-40.71,71.72-58.28,4.93-3.4,9.91-6.76,15.07-9.77,5.76-3.36,8.77-1.85,9.85,4.78.94,5.76,1.62,11.57,2.27,17.37A449.91,449.91,0,0,1,136,506.82c-.21,8.84-.78,17.7-.61,26.54.16,8.16,1.1,16.31,1.7,24.46Z" transform="translate(-6.15 -4.03)"/><path d="M370.24,622.4c3.75-2.18,6.93-4.09,10.16-5.89,8.06-4.48,16.07-9.07,24.26-13.31,5.63-2.91,7.37-1.83,8.63,4.46s2.55,12.67,3.93,19c1,4.55.25,6.47-4.19,8.64q-23,11.25-46.12,22.34c-7.53,3.6-15.16,7-22.75,10.48-2.49,1.14-5,2.48-7.57,0s-2.33-5.12-1.42-7.94q6-18.66,12.16-37.27c3.51-10.64,7.12-21.24,10.56-31.9.38-1.18.47-3.29-.19-3.78a5.11,5.11,0,0,0-4.1-.34c-16.76,5.58-33.85,10.34-49.38,19.14-2.76,1.56-4.66.36-5.2-3-1.35-8.48-2.57-17-3.83-25.47-.59-3.94-1.1-7.89-1.74-11.82-.67-4.11.21-6.07,4.18-7.47,17.86-6.29,35.62-12.87,53.67-18.53,13-4.08,26.43-7,39.74-10.2,9.74-2.32,12,.2,9.22,9.91a412.35,412.35,0,0,1-21.62,57.65c-3.34,7.33-5.44,15.22-8.08,22.86A17.34,17.34,0,0,0,370.24,622.4Z" transform="translate(-6.15 -4.03)"/></svg>