<svg id="Layer_1" data-name="Layer 1" xmlns="http://www.w3.org/2000/svg" viewBox="0 0 104.06 104.17"><path d="M68,57V51.67c0-6.67-.06-13.33,0-20,.06-4.14,3-7.54,6.92-7.62,8-.18,16-.2,24,0,4.55.11,7.11,4.3,7.09,7.49-.06,6.49,0,13,0,19.49-.09,6.09-.1,6-.1,6,6.16-.08,18.54-.06,24.7,0,5.3.05,8.36,3,8.4,8.19q.09,10.74,0,21.49c0,5.25-3,8.26-8.29,8.3-8,.05-16.36,0-24.68,0v3.33c0,7,0,14,0,21,0,5.65-2.91,8.63-8.43,8.67-7.16,0-14.21.09-21.48.09-4,0-8.35-4-8.16-8.13.3-6.32.08-12.66.08-19,0-1,0-2,0-3,0-2.29,0-3,0-3-3.83-.08-10.74,0-14.57,0-3.33,0-6.66,0-10,0-5.3-.07-8.36-3-8.4-8.19q-.09-10.74,0-21.49c0-5.25,3-8.26,8.29-8.3C51.3,57,59.29,57,68,57Z" transform="translate(-34.97 -23.91)"/></svg>