<svg id="Layer_1" data-name="Layer 1" xmlns="http://www.w3.org/2000/svg" viewBox="0 0 97.23 117.89"><path d="M136.07,58.1c0,6.84.39,13.71-.14,20.51a27.62,27.62,0,0,1-3.31,11.77c-10,16.8-22.56,31.36-38.7,42.63-5.31,3.7-7.36,3.75-12.57.08-16.21-11.44-28.92-26.11-39-43a24.21,24.21,0,0,1-3.14-11.32c-.37-13.67-.19-27.36-.14-41,0-7.63,2-10.81,9.15-13,21.66-6.72,43.64-9.4,66-3.86,4.84,1.2,9.7,2.46,14.4,4.13,5,1.8,7.65,5.46,7.48,11.12C135.91,43.41,136.07,50.76,136.07,58.1Z" transform="translate(-38.98 -17.92)"/></svg>